<svg width="1200" height="300" viewBox="0 0 1200 300" xmlns="http://www.w3.org/2000/svg">
  <defs>
    <linearGradient id="bg" x1="0" y1="0" x2="1" y2="1">
      <stop offset="0%" stop-color="#1B1712"/>
      <stop offset="100%" stop-color="#3C2C1D"/>
    </linearGradient>
    <linearGradient id="accentLine" x1="0" y1="0" x2="1" y2="0">
      <stop offset="0%" stop-color="#C99A3B"/>
      <stop offset="100%" stop-color="#7C9473"/>
    </linearGradient>
  </defs>

  <rect width="1200" height="300" fill="url(#bg)"/>

  <!-- soft strata lines -->
  <line x1="0" y1="230" x2="1200" y2="230" stroke="#EDE6D6" stroke-opacity="0.08" stroke-width="1"/>
  <line x1="0" y1="260" x2="1200" y2="260" stroke="#EDE6D6" stroke-opacity="0.06" stroke-width="1"/>

  <!-- title -->
  <text x="60" y="120" font-family="Georgia, 'Times New Roman', serif" font-size="52" font-weight="700" fill="#EDE6D6">
    Developer Tools
  </text>
  <text x="60" y="178" font-family="Georgia, 'Times New Roman', serif" font-size="52" font-weight="700" fill="#E4B75B">
    Research Agent
  </text>

  <text x="62" y="215" font-family="'Courier New', monospace" font-size="17" fill="#A89A82">
    LangGraph workflow · Firecrawl scraping · Gemini analysis
  </text>

  <rect x="60" y="234" width="260" height="3" rx="1.5" fill="url(#accentLine)"/>

  <!-- pipeline glyphs -->
  <g transform="translate(870,60)" stroke="#C99A3B" stroke-width="2.2" fill="none" stroke-linecap="round" stroke-linejoin="round">
    <circle cx="20" cy="20" r="14"/>
    <line x1="30" y1="30" x2="46" y2="46"/>
  </g>

  <g transform="translate(1000,60)" stroke="#7C9473" stroke-width="2.2" fill="none" stroke-linecap="round" stroke-linejoin="round">
    <path d="M6 40 L22 24 M22 24 L40 6 M40 6 L46 12 M40 6 L34 0"/>
    <path d="M6 40 L0 46"/>
  </g>

  <g transform="translate(1105,60)" stroke="#C99A3B" stroke-width="2.2" fill="none" stroke-linecap="round" stroke-linejoin="round">
    <line x1="0" y1="46" x2="0" y2="18"/>
    <line x1="14" y1="46" x2="14" y2="4"/>
    <line x1="28" y1="46" x2="28" y2="26"/>
  </g>

  <line x1="870" y1="230" x2="1150" y2="230" stroke="#EDE6D6" stroke-opacity="0.15" stroke-width="1" stroke-dasharray="4 4"/>
</svg>
